<?xml version="1.0" encoding="UTF-8"?>
<svg id="Layer_7" xmlns="http://www.w3.org/2000/svg" xmlns:xlink="http://www.w3.org/1999/xlink" viewBox="0 0 200 200">
  <defs>
    <filter id="outer-glow-3" x="-1913" y="-121" width="482" height="204" filterUnits="userSpaceOnUse">
      <feOffset dx="0" dy="0"/>
      <feGaussianBlur result="blur" stdDeviation="18"/>
      <feFlood flood-color="#e8caf4" flood-opacity=".76"/>
      <feComposite in2="blur" operator="in"/>
      <feComposite in="SourceGraphic"/>
    </filter>
  </defs>
  <path d="M15.92,106.62c-.01.17-.02.34-.03.5" style="fill: none; stroke: #e8caf4; stroke-miterlimit: 10; stroke-width: 3px;"/>
  <polygon points="150.38 94.12 173.38 99.64 173.38 114.6 150.38 120.12 25.38 113.82 25.38 100.42 150.38 94.12" style="fill: none; stroke: #e8caf4; stroke-miterlimit: 10; stroke-width: 3px;"/>
  <path d="M25.38,102.38v9.48c-6.8,0-9.74.72-9.49-4.74-.25-5.46,2.69-4.74,9.49-4.74Z" style="fill: none; stroke: #e8caf4; stroke-miterlimit: 10; stroke-width: 3px;"/>
  <path d="M15.89,107.12c.01.16.02.33.03.5" style="fill: none; stroke: #e8caf4; stroke-miterlimit: 10; stroke-width: 3px;"/>
  <path d="M173.38,105.62h6.47c1.6,0,3.1.55,4.28,1.5-1.18.95-2.68,1.5-4.28,1.5h-6.47v-3Z" style="fill: none; stroke: #e8caf4; stroke-miterlimit: 10; stroke-width: 3px;"/>
  <rect x="129.38" y="89.62" width="6" height="34" rx="3" ry="3" transform="translate(25.75 239) rotate(-90)" style="fill: none; stroke: #e8caf4; stroke-miterlimit: 10; stroke-width: 3px;"/>
</svg>