<?xml version="1.0" encoding="UTF-8"?>
<svg id="Layer_7" xmlns="http://www.w3.org/2000/svg" xmlns:xlink="http://www.w3.org/1999/xlink" viewBox="0 0 200 200">
  <defs>
    <style>
      .cls-1 {
        fill: none;
        stroke: #e8caf4;
        stroke-miterlimit: 10;
        stroke-width: 3px;
      }
    </style>
    <filter id="outer-glow-3" x="-2123" y="-329" width="482" height="204" filterUnits="userSpaceOnUse">
      <feOffset dx="0" dy="0"/>
      <feGaussianBlur result="blur" stdDeviation="18"/>
      <feFlood flood-color="#e8caf4" flood-opacity=".76"/>
      <feComposite in2="blur" operator="in"/>
      <feComposite in="SourceGraphic"/>
    </filter>
  </defs>
  <path class="cls-1" d="M123.5,99.5c0,2.73-.26,5.4-.76,7.99-.46,2.41-1.13,4.75-2,7-.38,1.03-.81,2.03-1.28,3.01-6.74,14.19-21.2,24-37.96,24-6.41,0-12.48-1.43-17.91-4-14.24-6.72-24.09-21.21-24.09-38,0-23.2,18.8-42,42-42,17.67,0,32.8,10.91,38.99,26.37,1.94,4.83,3.01,10.1,3.01,15.63Z"/>
  <path class="cls-1" d="M160.5,62.5v75.5c0,1.93-1.57,3.5-3.5,3.5s-3.5-1.57-3.5-3.5V62.5c0-1.26-.47-2.42-1.25-3.3-1.98,31.02-15.76,55.06-31.51,55.29.87-2.25,1.54-4.59,2-7,13.18-.25,24.84-21.93,26.54-49.92.15-2.3.22-4.65.22-7.03,1.68.14,3.27.63,4.69,1.39,3.75,2.02,6.31,6,6.31,10.57Z"/>
  <path class="cls-1" d="M149.5,50.54c0,2.38-.07,4.73-.22,7.03-.25-.05-.51-.07-.78-.07-1.66,0-3,2.24-3,5,0,3-2.12,3-3,3-3,0-3-3-3-3,0-6.63,4.03-12,9-12,.34,0,.67.01,1,.04Z"/>
  <path class="cls-1" d="M52.5,69.5c0,16.58,31.76,30,71,30"/>
  <path class="cls-1" d="M47.5,75.5c0,23.21,32.2,42,72,42"/>
  <path class="cls-1" d="M114.5,73.5c0,32.61-25.84,59-59,59"/>
  <path class="cls-1" d="M120.5,83.5c0,28.47-26.32,54-57,54"/>
  <path class="cls-1" d="M45.5,121.5c0-32.61,24.6-59,55-59"/>
  <path class="cls-1" d="M149.5,50.54v-.04"/>
  <path class="cls-1" d="M122.74,107.49c-.08.01-.16.01-.24.01"/>
  <path class="cls-1" d="M152.5,51.5c0,2.61-.08,5.18-.25,7.7"/>
  <path class="cls-1" d="M120.74,114.49c-.08.01-.16.01-.24.01"/>
</svg>